<svg xmlns="http://www.w3.org/2000/svg" version="1.0" width="200.000000pt" height="200.000000pt" viewBox="0 0 200.000000 200.000000" preserveAspectRatio="xMidYMid meet">

<g transform="translate(0.000000,200.000000) scale(0.100000,-0.100000)" fill="#000000" stroke="none">
<path d="M837 1984 c-363 -66 -652 -326 -777 -702 -43 -131 -54 -228 -41 -356 22 -202 85 -359 209 -526 205 -273 512 -416 852 -397 105 6 300 48 391 83 104 41 231 141 335 262 70 82 162 248 142 255 -7 2 -28 -21 -46 -51 -40 -67 -83 -124 -89 -118 -2 2 10 32 27 66 54 107 62 142 16 66 -35 -55 -142 -166 -162 -166 -14 0 -9 9 22 42 45 47 74 87 74 102 0 5 -22 -21 -50 -57 -27 -36 -54 -68 -60 -72 -6 -3 -8 -10 -5 -15 3 -5 -12 -22 -32 -39 l-38 -31 -6 82 c-3 46 -13 99 -21 118 -19 44 -75 94 -122 110 -59 19 -206 38 -199 26 4 -6 73 -88 155 -183 81 -94 148 -174 148 -177 0 -3 -6 -6 -14 -6 -8 0 -37 -14 -63 -30 -68 -42 -258 -99 -357 -106 -96 -7 -286 17 -322 41 l-25 16 48 33 c111 76 133 173 74 324 -18 45 -36 82 -40 82 -6 0 -86 -210 -137 -362 l-15 -46 -57 26 c-111 50 -177 99 -235 175 -109 142 -184 285 -203 382 l-7 38 29 -20 c85 -59 199 -69 269 -22 34 22 160 168 152 175 -2 2 -106 -15 -230 -38 -125 -23 -230 -38 -234 -34 -14 13 -6 230 10 293 37 140 166 357 264 444 l38 33 6 -95 c7 -126 42 -187 129 -222 40 -17 181 -42 200 -35 7 2 -55 82 -145 187 -182 211 -179 192 -41 260 125 62 217 83 371 84 76 1 155 -4 189 -12 91 -20 156 -41 156 -49 0 -5 -20 -18 -44 -29 -94 -46 -155 -126 -156 -204 0 -51 71 -252 82 -233 3 5 41 109 84 230 l79 222 50 -25 c107 -55 228 -156 305 -255 36 -46 118 -229 138 -308 11 -41 19 -76 18 -77 -2 -2 -37 15 -80 37 -62 32 -87 40 -132 40 -87 0 -130 -28 -229 -153 -21 -26 -36 -49 -34 -51 2 -3 110 15 239 39 129 23 238 41 243 38 4 -2 7 -21 7 -41 0 -26 3 -33 11 -25 19 19 12 189 -11 278 -117 457 -620 766 -1103 679z"/>
<path d="M924 1273 c31 -37 56 -70 56 -74 0 -4 -20 -10 -45 -13 -66 -10 -177 -70 -221 -119 -44 -49 -36 -56 47 -38 27 6 61 11 73 11 l24 0 -19 -61 c-10 -33 -19 -89 -19 -124 0 -63 26 -168 40 -160 4 3 20 41 36 85 l28 81 60 -60 c34 -32 79 -68 100 -80 37 -19 143 -47 151 -39 2 2 -21 31 -51 66 -30 35 -54 67 -54 71 0 4 26 14 58 21 80 18 146 53 198 107 24 26 42 49 39 51 -2 3 -41 -1 -85 -8 -44 -7 -83 -10 -86 -8 -2 3 3 22 12 43 25 62 30 165 9 240 -9 36 -20 65 -24 65 -3 0 -19 -36 -35 -80 -15 -44 -31 -80 -35 -80 -4 0 -27 21 -51 46 -58 59 -104 88 -170 108 -95 28 -98 24 -36 -51z m178 -210 c15 -15 28 -35 28 -44 0 -34 -23 -69 -49 -75 -14 -3 -30 -7 -36 -9 -5 -1 -24 11 -42 27 -28 28 -30 33 -21 62 15 43 25 54 56 59 15 2 29 5 31 6 3 0 18 -11 33 -26z"/>
<path d="M1952 890 c0 -14 2 -19 5 -12 2 6 2 18 0 25 -3 6 -5 1 -5 -13z"/>
<path d="M1914 784 c-23 -93 -16 -102 15 -18 22 57 26 90 14 97 -5 3 -17 -33 -29 -79z"/>
<path d="M1395 259 c-33 -16 -49 -26 -35 -23 29 8 100 42 100 49 0 6 5 8 -65 -26z"/>
</g>
</svg>
